# xmcd
#
# Track frame offsets:
#	150
#	25706
#	57165
#	73842
#	94939
#	122476
#	145830
#	180255
#	202251
#	218164
#
# Disc length: 3143 seconds
#
# Revision: 1
# Processed by: cddbd v1.5.2PL0 Copyright (c) Steve Scherf et al.
# Submitted via: audiograbber 1.83.01
#
DISCID=8f0c450a
DTITLE=Billy Joel - The Hits
DYEAR=1900
DGENRE=
TTITLE0=Piano Man
TTITLE1=Captain Jack
TTITLE2=The Enetertainer
TTITLE3=Say Goodbye To Hollywood
TTITLE4=New York State Of Mind
TTITLE5=The Stranger
TTITLE6=Scenes From An Italian Restaurant
TTITLE7=Just The Way You Are
TTITLE8=Moving Out(Anthonys Song)
TTITLE9=Shes Always A Woman
EXTD=
EXTT0=
EXTT1=
EXTT2=
EXTT3=
EXTT4=
EXTT5=
EXTT6=
EXTT7=
EXTT8=
EXTT9=
PLAYORDER=
